<svg xmlns="http://www.w3.org/2000/svg" width="94" height="105.18" viewBox="0 0 94 105.18">
  <g id="Group_32" data-name="Group 32" transform="translate(-302 -93.532)">
    <g id="Artboard_3" data-name="Artboard 3" transform="translate(325.371 93.532)">
      <path id="Path_1" data-name="Path 1" d="M566.907,26.057h1.548c-.054-.257-.674-1.034-.687-1.207-.022-.286.556-.835.884-.846,1.447-.05,2.1,2.067,2.269,3.185.866,5.583-2.973,11.6-3.89,17.088-1.165,6.966.463,14.208,5.762,19.065.227.373,2.676,1.861,2.684,2.029.008.146-.044.128-.152.152-.51.114-2.665-.136-2.938.006a8.806,8.806,0,0,0-1.229,2.478l20.606,0c.138.014.239-.193.219-.309a19.775,19.775,0,0,0-1.168-2.128c-.214-.134-3.072-.05-3.088-.2a23.906,23.906,0,0,1,2.05-1.613c5.625-4.848,7.5-12.272,6.265-19.478-.927-5.415-4.477-11.043-3.953-16.54.12-1.255.648-3.769,2.291-3.774a1.831,1.831,0,0,1,1.015.488c.074.184-.849,1.551-.778,1.606s1.382,0,1.592,0c.264,0,.794-1.328.838-1.6.674-4.194-5.228-3.764-6.551-.838l-17.876.043c-.478-.388-.711-.924-1.2-1.329-2.175-1.8-6-1.13-5.283,2.318.05.239.538,1.411.769,1.411Zm22.479-.218c.092.092-.286,2.256-.307,2.593-.2,3.375,1.149,7.407,1.819,10.743,1.211,6.022,1.834,12.134-1.375,17.7-.241.417-1.971,2.938-2.331,2.844a.357.357,0,0,1-.1-.078v-33.8c.34.053,2.212-.084,2.292,0Zm-4.927,0c.246.054,1.935-.071,2.006,0a15.558,15.558,0,0,1,.12,2.3V60.456c-.194.228-1.838,1.059-2.126,1.315Zm-2.616,0h2.006V61.968c0,.1-1.821.323-2.006.414Zm-2.616,0h2.006v36.5c-.239-.062-1.939-.229-2.005-.306-.026-.031-.034-.691-.089-.8v-.48h.031V26.325a2.147,2.147,0,0,1,.058-.485Zm-2.7,0h2.135V60.748h0v.893a5.4,5.4,0,0,1-2.137-1.156ZM574.038,28c-.017-.338-.437-2.251-.35-2.331s2.027.169,2.311.13V59.853c-3.113-2.725-4.64-7.466-4.8-11.532-.271-6.944,3.16-13.878,2.838-20.325Z" transform="translate(-556.183 -21.359)" fill="#a64e1f"/>
      <path id="Path_2" data-name="Path 2" d="M78.513,2157.908a17.684,17.684,0,0,0-1.5,3.815l-.089,17.114H54.2v-10.16c.581-.233,4.311-.7,4.551-.913.063-.055.016-.152.028-.221H47.837c0,.057-.014.084.028.134.425.5,4.464.814,4.464,1.043v10.117l-22.631-.043v-16.722a7.34,7.34,0,0,0-.186-.991,23.5,23.5,0,0,0-1.3-2.955.692.692,0,0,0-.172.043v22.24H78.622V2157.95c-.044.018-.1-.043-.11-.042Z" transform="translate(-27.978 -2118.977)" fill="#a64e1f"/>
      <path id="Path_3" data-name="Path 3" d="M1798.583,1396.79h-8.677a23.349,23.349,0,0,1-4.692,16.217c-.2.265-1.48,1.662-1.494,1.777a20.3,20.3,0,0,0,2.588,2.938,31.7,31.7,0,0,1,2.548,2.195,20.378,20.378,0,0,1-1.74,1.664,24.957,24.957,0,0,1-4.273,2.835,27.1,27.1,0,0,0-2.7,1.312c-.271.237-.372.829-.114,1.022.565.423,3.658-1.077,4.3-1.417,2.511-1.336,5.337-3.311,6.87-5.733-1.253-1.183-2.711-2.139-3.95-3.338a15.233,15.233,0,0,1-1.38-1.527c0-.1,1.078-1.35,1.241-1.577a24.454,24.454,0,0,0,4.543-14.622h5.32a31.267,31.267,0,0,1-3.553,14.7,18.867,18.867,0,0,1-1.4,2.262c-.176.015-2.614-2.178-2.791-2.173-.081,0-.85,1.143-.981,1.285.557.273,3.809,3.383,4.053,3.291.119-.045,1.349-1.8,1.512-2.042a32.118,32.118,0,0,0,4.858-16.248,23.549,23.549,0,0,0-.089-2.814Z" transform="translate(-1747.895 -1371.727)" fill="#a64e1f"/>
      <path id="Path_4" data-name="Path 4" d="M30.927,1420.241a20.739,20.739,0,0,0,3.918-3.307,7,7,0,0,0-.924-1.16c-.19.013-2.589,2.047-2.793,2.005a22.334,22.334,0,0,1-1.488-2.489,30.613,30.613,0,0,1-3.335-14.391h5.363a16.624,16.624,0,0,1,.045,2.245,23.434,23.434,0,0,0,5.754,14.13l-5.535,4.793c3.006,3.486,6.822,6.34,11.423,7.264v-1.177a15.342,15.342,0,0,0-1.658-.675,25.271,25.271,0,0,1-7.363-5.156c.863-.891,1.935-1.666,2.852-2.541a22.31,22.31,0,0,0,2.317-2.552c0-.142-1.535-1.915-1.764-2.232a22.525,22.525,0,0,1-4.414-13.159c-.011-.368.138-2.546.045-2.64H24.692a31.15,31.15,0,0,0,4.578,18.687,27.741,27.741,0,0,0,1.657,2.355Z" transform="translate(-24.629 -1374.093)" fill="#a64e1f"/>
      <path id="Path_5" data-name="Path 5" d="M236.548,2542.487c-.35-.2-2.282-1.593-2.425-1.57-.1.016-1.1.831-1.081.971a11.357,11.357,0,0,0,.924.783,27.1,27.1,0,0,0,7.452,3.8v3.335H225.893l-.005-7.822a6.488,6.488,0,0,0-1.433-2.5c-.088-.059-.072-.042-.175-.017v11.948c3.893.2,7.809.224,11.71.177,1.634-.02,3.3-.015,4.927-.088a17.778,17.778,0,0,0,2.182-.173c.193-.248-.1-5.538.013-6.276A26.028,26.028,0,0,1,236.548,2542.487Z" transform="translate(-220.642 -2493.564)" fill="#a64e1f"/>
      <path id="Path_6" data-name="Path 6" d="M1582.754,2539.426a13.007,13.007,0,0,0,1.136-.959,7.294,7.294,0,0,0-1-.956c-.121-.037-1.858,1.171-2.15,1.339a25.85,25.85,0,0,1-4.367,2.043,19.73,19.73,0,0,0-2.421.719V2548c4.07.15,8.158.185,12.234.133,1.615-.021,3.271-.012,4.883-.088a10.828,10.828,0,0,0,1.721-.154v-11.97a4.546,4.546,0,0,0-1.152,1.355,3.411,3.411,0,0,0-.413,1.07l-.046,7.934c-3.642.184-7.321.222-10.972.152-1.05-.02-2.184-.023-3.226-.088a8.459,8.459,0,0,1-1.328-.132v-3.205a28.838,28.838,0,0,0,7.1-3.581Z" transform="translate(-1545.719 -2490.101)" fill="#a64e1f"/>
      <path id="Path_7" data-name="Path 7" d="M42.062,786.7a66.259,66.259,0,0,1,2.421-7.326H34.955a15.739,15.739,0,0,0-.741,2.268,33.477,33.477,0,0,0-1.374,7.108h8.852a15.9,15.9,0,0,0,.37-2.05Zm-7.391.262,1.4-5.756h5.887l-1.766,5.756Z" transform="translate(-32.69 -765.558)" fill="#a64e1f"/>
      <path id="Path_8" data-name="Path 8" d="M2172.645,791.092h8.634a31.4,31.4,0,0,0-1.34-7.141,15.139,15.139,0,0,0-.775-2.19h-9.354l2.834,9.332Zm6.38-3.96a19.7,19.7,0,0,1,.335,2.172h-5.385l-1.81-5.8h5.778a22.965,22.965,0,0,1,1.082,3.627Z" transform="translate(-2130.721 -767.904)" fill="#a64e1f"/>
      <path id="Path_9" data-name="Path 9" d="M2357.023,1612a28.007,28.007,0,0,0,2.129-9.4h-1.613a29.976,29.976,0,0,1-2.16,9.112c-.121.3-.929,1.842-.929,1.95a4.486,4.486,0,0,0,1.236.973,20.043,20.043,0,0,0,1.337-2.63Z" transform="translate(-2311.997 -1573.787)" fill="#a64e1f"/>
      <path id="Path_10" data-name="Path 10" d="M225.85,1602.59h-1.57a26.969,26.969,0,0,0,1.9,9.068,29.3,29.3,0,0,0,1.416,3.011,6.473,6.473,0,0,0,1.3-.929c.01-.149-1.05-2.318-1.2-2.723a29.021,29.021,0,0,1-1.843-8.427Z" transform="translate(-220.642 -1573.777)" fill="#a64e1f"/>
      <path id="Path_11" data-name="Path 11" d="M415.72,2786.519h5.407l-5.407-4.1Z" transform="translate(-408.594 -2732.109)" fill="#a64e1f"/>
      <path id="Path_12" data-name="Path 12" d="M2131.53,2786.475h5.233v-4.055Z" transform="translate(-2093.138 -2732.109)" fill="#a64e1f"/>
      <path id="Path_13" data-name="Path 13" d="M266.758,982.44H268.5c.106,0,.409-1.876.523-2.05h-1.679C267.086,980.39,266.675,982.156,266.758,982.44Z" transform="translate(-262.335 -962.915)" fill="#a64e1f"/>
      <path id="Path_14" data-name="Path 14" d="M2443.219,981.455h1.809c-.144-.233-.436-1.989-.523-2.05s-1.633.044-1.875,0A20,20,0,0,0,2443.219,981.455Z" transform="translate(-2398.57 -961.931)" fill="#a64e1f"/>
    </g>
    <text id="Stone_Harp_Analytics" data-name="Stone HarpAnalytics" transform="translate(349 178.712)" fill="#a64e1f" font-size="26" font-family="BBTorsosProSemiLight, BB Torsos Pro Semi"><tspan x="-46" y="0">Stone Harp</tspan><tspan y="0" font-size="15" font-family="BBTorsosProSemiUltra, BB Torsos Pro Semi"></tspan><tspan font-size="15" font-family="BBTorsosProSemiUltra, BB Torsos Pro Semi"><tspan x="-46" y="17">Analytics</tspan></tspan></text>
  </g>
</svg>
